<svg id="Layer_1" data-name="Layer 1" xmlns="http://www.w3.org/2000/svg" viewBox="0 0 485.25 480"><defs><style>.cls-1{fill:#960018;}</style></defs><title>quickRecipes</title><path class="cls-1" d="M485.25,240c0,132.55-108.63,240-242.63,240S0,372.55,0,240,108.63,0,242.63,0,485.25,107.45,485.25,240ZM255,387.84c26.26,0,52.53-.09,78.79.09,4.15,0,5.4-.83,5.38-4.84-0.17-38.51-.06-77-0.14-115.54,0-3,.62-4.13,4.22-4.3,30.11-1.37,56.06-22.11,61.89-49.2,9.35-43.46-30.16-81-77.86-73.82-2.87.43-4.29-.12-6-2.17-32.08-37.57-92-40.38-127.37-5.47-6,5.87-11,9.22-19.52,6.7a7.3,7.3,0,0,0-1.84-.08c-41.4-1-72.84,31.91-69.06,67.89,3.17,30.14,30.09,54.75,62.76,56.14,3.78,0.16,4.48,1.3,4.47,4.49-0.09,38.66,0,77.31-.1,116,0,3.45,1.16,4.27,4.69,4.25,26.57-.11,53.14-0.06,79.72-0.06v0Zm50.94-31.68v-61.5a2.33,2.33,0,0,1,4.67,0v61.5m-30.67,0v-61.5a2.33,2.33,0,0,1,4.67,0v61.5m-31,0v-61.5a2.34,2.34,0,0,1,2.33-2.33h0a2.34,2.34,0,0,1,2.33,2.33v61.5m-30.67,0v-61.5a2.34,2.34,0,0,1,2.33-2.33h0a2.34,2.34,0,0,1,2.33,2.33v61.5m-31,0v-61.5a2.33,2.33,0,0,1,4.67,0v61.5m133.16,5.5H170.64v-5.5H339.1v5.5Z"/></svg>